<?xml version="1.0" encoding="UTF-8"?>
<svg height="128px" viewBox="0 0 128 128" width="128px" xmlns="http://www.w3.org/2000/svg" xmlns:xlink="http://www.w3.org/1999/xlink">
    <filter id="a" height="100%" width="100%" x="0%" y="0%">
        <feColorMatrix color-interpolation-filters="sRGB" values="0 0 0 0 1 0 0 0 0 1 0 0 0 0 1 0 0 0 1 0"/>
    </filter>
    <clipPath id="b">
        <rect height="128" width="128"/>
    </clipPath>
    <clipPath id="c">
        <rect height="128" width="128"/>
    </clipPath>
    <mask id="d">
        <g filter="url(#a)">
            <g clip-path="url(#c)" filter="url(#a)">
                <g clip-path="url(#b)">
                    <path d="m 3.616819 8.610613 h 26.633046 v 19.835186 h -26.633046 z m 0 0" fill="none" stroke="#5e5c64" stroke-linecap="round" stroke-linejoin="round" stroke-width="0.624085" transform="matrix(3.599851 0 0 3.781947 3.04249 -0.045354)"/>
                    <path d="m 16.0625 32.519531 h 95.875 v 75.015625 h -95.875 z m 0 0" fill="#5e5c64"/>
                    <path d="m 3.597287 10.545174 h 26.673195 v 17.16006 h -26.673195 z m 0 0" fill="none" stroke="#77767b" stroke-linecap="round" stroke-linejoin="round" stroke-width="0.580928" transform="matrix(3.599851 0 0 3.781947 3.04249 -0.045354)"/>
                    <path d="m 15.992188 39.835938 h 96.019531 v 64.898437 h -96.019531 z m 0 0" fill="#77767b"/>
                    <path d="m 3.605968 8.319345 h 26.653663 v 18.613304 h -26.653663 z m 0 0" fill="none" stroke="#9a9996" stroke-linecap="round" stroke-linejoin="round" stroke-width="0.604819" transform="matrix(3.599851 0 0 3.781947 3.04249 -0.045354)"/>
                    <path d="m 16.023438 31.417969 h 95.949218 v 70.394531 h -95.949218 z m 0 0" fill="#9a9996"/>
                    <path d="m 3.591861 9.280944 h 26.682961 v 16.771702 h -26.682961 z m 0 0" fill="none" stroke="#c0bfbc" stroke-linecap="round" stroke-linejoin="round" stroke-width="0.574432" transform="matrix(3.599851 0 0 3.781947 3.04249 -0.045354)"/>
                    <path d="m 15.972656 35.054688 h 96.054688 v 63.429687 h -96.054688 z m 0 0" fill="#c0bfbc"/>
                    <path d="m 3.58101 9.622824 h 26.703578 v 15.547753 h -26.703578 z m 0 0" fill="none" stroke="#deddda" stroke-linecap="round" stroke-linejoin="round" stroke-width="0.553285" transform="matrix(3.599851 0 0 3.781947 3.04249 -0.045354)"/>
                    <path d="m 15.933594 36.347656 h 96.128906 v 58.800782 h -96.128906 z m 0 0" fill="#deddda"/>
                    <path d="m 3.589691 7.474459 h 26.686217 v 16.787195 h -26.686217 z m 0 0" fill="none" stroke="#f6f5f4" stroke-linecap="round" stroke-linejoin="round" stroke-width="0.574739" transform="matrix(3.599851 0 0 3.781947 3.04249 -0.045354)"/>
                    <path d="m 15.964844 28.222656 h 96.066406 v 63.488282 h -96.066406 z m 0 0" fill="#f6f5f4"/>
                    <path d="m 2.633024 6.657879 c 0.054947 0.071083 0.093917 0.124945 0.203033 -0.037007 c 0.107946 -0.161953 0.286038 -0.53972 0.445035 -0.80903 c 0.157828 -0.267844 0.296951 -0.428698 0.469977 -0.447751 c 0.173026 -0.020152 0.379956 0.100762 0.662097 0.179907 c 0.282922 0.078045 0.643003 0.112853 1.438767 -0.09087 c 0.794985 -0.205188 2.027212 -0.650008 2.776992 -0.892204 c 0.750169 -0.241829 1.015944 -0.281035 1.165978 -0.323905 s 0.181209 -0.090136 0.1551 -0.20299 c -0.053779 -0.171479 -0.12938 -0.33563 -0.224856 -0.488056 c -0.115351 -0.211784 -0.268113 -0.401217 -0.450102 -0.559139 c -0.199915 -0.163784 -0.460234 -0.287997 -0.685869 -0.369706 c -0.206541 -0.07548 -0.421654 -0.123846 -0.640275 -0.143998 c -0.259539 -0.02858 -0.521417 -0.02455 -0.779787 0.011725 c -0.305134 0.043236 -0.660149 0.135204 -0.985158 0.20812 c -0.323839 0.072915 -0.616113 0.127143 -0.86513 0.186868 c -0.249018 0.060091 -0.454778 0.128976 -0.669892 0.220211 c -0.212775 0.08977 -0.432955 0.20409 -0.666774 0.325004 c -0.23304 0.120915 -0.479329 0.249891 -0.681193 0.368974 c -0.203033 0.119082 -0.363978 0.230104 -0.499983 0.378866 c -0.14224 0.158655 -0.254473 0.341859 -0.332023 0.540086 c -0.079889 0.200058 -0.125873 0.414041 -0.143799 0.637184 c -0.018316 0.221677 -0.007015 0.45288 0.015978 0.630955 c 0.022992 0.178807 0.058844 0.303019 0.111843 0.410011 c 0.054168 0.106991 0.125093 0.196028 0.180041 0.266745 z m 0 0" fill="none" stroke="#c0bfbc" stroke-linecap="round" stroke-linejoin="round" stroke-width="0.264583" transform="matrix(10.023775 0 0 10.660922 -0.283462 -4.233029)"/>
                    <path d="m 26.109375 66.746094 c 0.550781 0.757812 0.941406 1.332031 2.035156 -0.394532 c 1.082031 -1.726562 2.867188 -5.753906 4.460938 -8.625 c 1.582031 -2.855468 2.976562 -4.570312 4.710937 -4.773437 c 1.734375 -0.214844 3.808594 1.074219 6.636719 1.917969 c 2.835937 0.832031 6.445313 1.203125 14.421875 -0.96875 c 7.96875 -2.1875 20.320312 -6.929688 27.835938 -9.511719 c 7.519531 -2.578125 10.183593 -2.996094 11.6875 -3.453125 c 1.503906 -0.457031 1.816406 -0.960938 1.554687 -2.164062 c -0.539063 -1.828126 -1.296875 -3.578126 -2.253906 -5.203126 c -1.15625 -2.257812 -2.6875 -4.277343 -4.511719 -5.960937 c -2.003906 -1.746094 -4.613281 -3.070313 -6.875 -3.941406 c -2.070312 -0.804688 -4.226562 -1.320313 -6.417969 -1.535157 c -2.601562 -0.304687 -5.226562 -0.261718 -7.816406 0.125 c -3.058594 0.460938 -6.617187 1.441407 -9.875 2.21875 c -3.246094 0.777344 -6.175781 1.355469 -8.671875 1.992188 c -2.496094 0.640625 -4.558594 1.375 -6.714844 2.347656 c -2.132812 0.957032 -4.339844 2.175782 -6.683594 3.464844 c -2.335937 1.289062 -4.804687 2.664062 -6.828124 3.933594 c -2.035157 1.269531 -3.648438 2.453125 -5.011719 4.039062 c -1.425781 1.691406 -2.550781 3.644532 -3.328125 5.757813 c -0.800782 2.132812 -1.261719 4.414062 -1.441406 6.792969 c -0.183594 2.363281 -0.070313 4.828124 0.160156 6.726562 c 0.230468 1.90625 0.589844 3.230469 1.121094 4.371094 c 0.542968 1.140625 1.253906 2.089844 1.804687 2.84375 z m 0 0" fill="#c0bfbc"/>
                    <path d="m 2.633014 6.658172 c 0.054965 0.070886 0.094009 0.124714 0.202803 -0.037149 c 0.108035 -0.161864 0.286199 -0.540177 0.44503 -0.808939 c 0.158073 -0.268004 0.297192 -0.429109 0.470049 -0.448063 c 0.173236 -0.020091 0.380209 0.100833 0.662238 0.180059 c 0.282787 0.078089 0.642905 0.112964 1.438956 -0.090977 c 0.794913 -0.205078 2.026896 -0.650108 2.777079 -0.891955 c 0.749803 -0.242227 1.015912 -0.281272 1.165645 -0.324107 c 0.150112 -0.043214 0.181196 -0.090219 0.15504 -0.203182 c -0.053828 -0.171341 -0.129263 -0.335479 -0.224789 -0.487865 c -0.115238 -0.211901 -0.268004 -0.401058 -0.449958 -0.559131 c -0.20015 -0.163759 -0.460193 -0.287715 -0.68612 -0.369974 c -0.206215 -0.075056 -0.421528 -0.123577 -0.639873 -0.144047 c -0.259664 -0.028431 -0.521602 -0.024261 -0.780129 0.01213 c -0.305153 0.043214 -0.659964 0.13495 -0.984828 0.20811 c -0.324107 0.072782 -0.615992 0.126989 -0.865042 0.186883 c -0.24905 0.059893 -0.455265 0.128884 -0.670199 0.219861 c -0.213038 0.090219 -0.432899 0.20432 -0.666787 0.325244 c -0.233129 0.120924 -0.479146 0.249808 -0.681191 0.368837 c -0.202804 0.119028 -0.363909 0.230096 -0.499996 0.379071 c -0.142152 0.158831 -0.254357 0.341544 -0.332067 0.540177 c -0.079984 0.199771 -0.125851 0.413946 -0.144047 0.636841 c -0.017816 0.222136 -0.006823 0.45299 0.0163 0.631154 c 0.022745 0.178922 0.058756 0.302878 0.111826 0.409776 c 0.054208 0.106899 0.125094 0.19598 0.18006 0.267246 z m 0 0" fill="none" stroke="#865e3c" stroke-linecap="round" stroke-linejoin="round" stroke-width="0.264583" transform="matrix(10.30478 0 0 10.30478 -0.937314 -5.775061)"/>
                    <path d="m 26.195312 62.835938 c 0.566407 0.730468 0.96875 1.285156 2.089844 -0.382813 c 1.113282 -1.667969 2.949219 -5.566406 4.585938 -8.335937 c 1.628906 -2.761719 3.0625 -4.421876 4.84375 -4.617188 c 1.785156 -0.207031 3.917968 1.039062 6.824218 1.855469 c 2.914063 0.804687 6.625 1.164062 14.828126 -0.9375 c 8.191406 -2.113281 20.886718 -6.699219 28.617187 -9.191407 c 7.726563 -2.496093 10.46875 -2.898437 12.011719 -3.339843 c 1.546875 -0.445313 1.867187 -0.929688 1.597656 -2.09375 c -0.554688 -1.765625 -1.332031 -3.457031 -2.316406 -5.027344 c -1.1875 -2.183594 -2.761719 -4.132813 -4.636719 -5.761719 c -2.0625 -1.6875 -4.742187 -2.964844 -7.070313 -3.8125 c -2.125 -0.773437 -4.34375 -1.273437 -6.59375 -1.484375 c -2.675781 -0.292969 -5.375 -0.25 -8.039062 0.125 c -3.144531 0.445313 -6.800781 1.390625 -10.148438 2.144531 c -3.339843 0.75 -6.347656 1.308594 -8.914062 1.925782 c -2.566406 0.617187 -4.691406 1.328125 -6.90625 2.265625 c -2.195312 0.929687 -4.460938 2.105469 -6.871094 3.351562 c -2.402344 1.246094 -4.9375 2.574219 -7.019531 3.800781 c -2.089844 1.226563 -3.75 2.371094 -5.152344 3.90625 c -1.464843 1.636719 -2.621093 3.519532 -3.421875 5.566407 c -0.824218 2.058593 -1.296875 4.265625 -1.484375 6.5625 c -0.183593 2.289062 -0.070312 4.667969 0.167969 6.503906 c 0.234375 1.84375 0.605469 3.121094 1.152344 4.222656 c 0.558594 1.101563 1.289062 2.019531 1.855468 2.753907 z m 0 0" fill="#865e3c"/>
                    <path d="m 9.686188 3.764035 c -0.130129 -0.29284 -0.304139 -0.430917 -0.509168 -0.515182 c -0.205029 -0.083847 -0.439942 -0.111796 -0.907877 -0.010012 c -0.468313 0.100117 -1.170027 0.332053 -1.956097 0.619053 c -0.787206 0.286166 -1.659903 0.628231 -2.105141 1.00909 c -0.445995 0.380025 -0.464909 0.800097 -0.309813 0.963203 c 0.153961 0.16394 0.483066 0.07175 0.944949 -0.05715 c 0.575745 -0.158935 1.148843 -0.327464 1.718914 -0.50517 c 0.661994 -0.208993 1.392079 -0.458033 1.973877 -0.516851 c 0.582176 -0.06007 1.016066 0.070081 1.190076 -0.088019 c 0.175144 -0.158101 0.090031 -0.606121 -0.03972 -0.898962 z m 0 0" fill="none" stroke="#63452c" stroke-linecap="round" stroke-linejoin="round" stroke-width="0.264583" transform="matrix(10.326285 0 0 9.364103 -1.080934 -2.07494)"/>
                    <path d="m 98.941406 33.171875 c -1.34375 -2.742187 -3.140625 -4.035156 -5.257812 -4.824219 c -2.117188 -0.785156 -4.542969 -1.046875 -9.375 -0.09375 c -4.835938 0.9375 -12.082032 3.109375 -20.199219 5.796875 c -8.128906 2.679688 -17.140625 5.882813 -21.738281 9.449219 c -4.605469 3.558594 -4.800782 7.492188 -3.199219 9.019531 c 1.589844 1.535157 4.988281 0.671875 9.757813 -0.535156 c 5.945312 -1.488281 11.863281 -3.066406 17.75 -4.730469 c 6.835937 -1.957031 14.375 -4.289062 20.382812 -4.839844 c 6.011719 -0.5625 10.492188 0.65625 12.289062 -0.824218 c 1.808594 -1.480469 0.929688 -5.675782 -0.410156 -8.417969 z m 0 0" fill="#63452c"/>
                    <path d="m 2.781985 6.764961 c 0.037905 -0.093006 0.155069 -0.191978 0.276061 -0.438006 c 0.120993 -0.246027 0.245814 -0.637003 0.382887 -0.851092 c 0.137074 -0.213739 0.287166 -0.249888 0.413136 -0.193733 c 0.127118 0.05475 0.230115 0.200752 0.394756 0.294811 c 0.166173 0.095112 0.393991 0.137228 0.696089 0.10915 c 0.303247 -0.02913 0.680008 -0.128102 1.368056 -0.353071 c 0.768837 -0.253749 1.533463 -0.51943 2.293877 -0.797044 c 0.610322 -0.223917 0.835077 -0.323942 1.020011 -0.349913 c 0.150475 -0.029833 0.30631 0.005966 0.428068 0.098972 c 0.096105 0.08002 0.142051 0.194084 0.178043 0.345 c 0.034842 0.151968 0.060113 0.340086 0.053221 0.533117 c -0.008041 0.207421 -0.054753 0.412034 -0.137074 0.60296 c -0.089978 0.215844 -0.233178 0.449938 -0.468271 0.702985 c -0.283336 0.299023 -0.611087 0.553122 -0.971767 0.752822 c -0.410072 0.230234 -0.900934 0.419053 -1.446165 0.588219 c -0.544848 0.168815 -1.142918 0.317975 -1.58209 0.392731 c -0.439937 0.075107 -0.720976 0.075107 -1.039921 0.023164 c -0.328135 -0.053347 -0.647845 -0.148459 -0.951858 -0.282879 c -0.232412 -0.099323 -0.439554 -0.249186 -0.606876 -0.438006 c -0.130182 -0.156179 -0.190295 -0.317273 -0.243133 -0.440111 c -0.050924 -0.122136 -0.09419 -0.208123 -0.05705 -0.300076 z m 0 0" fill="none" stroke="#c0bfbc" stroke-linecap="round" stroke-linejoin="round" stroke-width="0.264583" transform="matrix(10.202092 0 0 11.129994 -0.604718 -8.239289)"/>
                    <path d="m 27.777344 67.054688 c 0.386718 -1.035157 1.582031 -2.136719 2.816406 -4.875 c 1.234375 -2.738282 2.507812 -7.089844 3.90625 -9.472657 c 1.398438 -2.378906 2.929688 -2.78125 4.214844 -2.15625 c 1.296875 0.609375 2.347656 2.234375 4.027344 3.28125 c 1.695312 1.058594 4.019531 1.527344 7.101562 1.214844 c 3.09375 -0.324219 6.9375 -1.425781 13.957031 -3.929687 c 7.84375 -2.824219 15.644531 -5.78125 23.402344 -8.871094 c 6.226563 -2.492188 8.519531 -3.605469 10.40625 -3.894532 c 1.535156 -0.332031 3.125 0.066407 4.367187 1.101563 c 0.980469 0.890625 1.449219 2.160156 1.816407 3.839844 c 0.355469 1.691406 0.613281 3.785156 0.542969 5.933593 c -0.082032 2.308594 -0.558594 4.585938 -1.398438 6.710938 c -0.917969 2.402344 -2.378906 5.007812 -4.777344 7.824219 c -2.890625 3.328125 -6.234375 6.15625 -9.914062 8.378906 c -4.183594 2.5625 -9.191406 4.664063 -14.753906 6.546875 c -5.558594 1.878906 -11.660157 3.539062 -16.140626 4.371094 c -4.488281 0.835937 -7.355468 0.835937 -10.609374 0.257812 c -3.347657 -0.59375 -6.609376 -1.652344 -9.710938 -3.148437 c -2.371094 -1.105469 -4.484375 -2.773438 -6.191406 -4.875 c -1.328125 -1.738281 -1.941406 -3.53125 -2.480469 -4.898438 c -0.519531 -1.359375 -0.960937 -2.316406 -0.582031 -3.339843 z m 0 0" fill="#c0bfbc"/>
                    <path d="m 2.781989 6.76507 c 0.037907 -0.093252 0.15504 -0.192189 0.275964 -0.438207 c 0.120924 -0.246017 0.246017 -0.63684 0.382862 -0.851016 c 0.137224 -0.213796 0.287336 -0.249808 0.413188 -0.193705 c 0.126989 0.054965 0.230097 0.200908 0.394993 0.294918 c 0.166033 0.094767 0.393855 0.136844 0.695975 0.108793 c 0.302879 -0.028809 0.680055 -0.127747 1.36807 -0.352916 c 0.768757 -0.253599 1.533345 -0.519328 2.294142 -0.796808 c 0.609926 -0.224032 0.834715 -0.324106 1.019702 -0.350262 c 0.150492 -0.029947 0.30629 0.006444 0.427972 0.099316 c 0.096284 0.079984 0.142152 0.193706 0.178164 0.344956 c 0.034874 0.152007 0.059893 0.340027 0.05307 0.532974 c -0.007961 0.207732 -0.054586 0.412051 -0.137224 0.602724 c -0.08984 0.216071 -0.23275 0.450337 -0.467775 0.703178 c -0.283545 0.299088 -0.611442 0.553066 -0.971939 0.752836 c -0.410156 0.230097 -0.901053 0.419254 -1.446158 0.58832 c -0.545106 0.168686 -1.142901 0.317662 -1.581866 0.392718 c -0.440103 0.075056 -0.720995 0.075056 -1.040173 0.023123 c -0.328276 -0.05307 -0.648213 -0.148217 -0.951849 -0.283166 c -0.232371 -0.099317 -0.439723 -0.248671 -0.607273 -0.437828 c -0.130021 -0.156178 -0.189915 -0.316904 -0.242985 -0.440102 c -0.050795 -0.122061 -0.094009 -0.207732 -0.05686 -0.299846 z m 0 0" fill="none" stroke="#b5835a" stroke-linecap="round" stroke-linejoin="round" stroke-width="0.264583" transform="matrix(10.30478 0 0 10.30478 -0.937314 -5.775061)"/>
                    <path d="m 27.730469 63.9375 c 0.390625 -0.960938 1.597656 -1.980469 2.84375 -4.515625 c 1.246093 -2.535156 2.535156 -6.5625 3.945312 -8.769531 c 1.414063 -2.203125 2.960938 -2.574219 4.257813 -1.996094 c 1.308594 0.566406 2.371094 2.070312 4.070312 3.039062 c 1.710938 0.976563 4.058594 1.410157 7.171875 1.121094 c 3.121094 -0.296875 7.007813 -1.316406 14.097657 -3.636718 c 7.921874 -2.613282 15.800781 -5.351563 23.640624 -8.210938 c 6.285157 -2.308594 8.601563 -3.339844 10.507813 -3.609375 c 1.550781 -0.308594 3.15625 0.066406 4.410156 1.023437 c 0.992188 0.824219 1.464844 1.996094 1.835938 3.554688 c 0.359375 1.566406 0.617187 3.503906 0.546875 5.492188 c -0.082032 2.140624 -0.5625 4.246093 -1.414063 6.210937 c -0.925781 2.226563 -2.398437 4.640625 -4.820312 7.246094 c -2.921875 3.082031 -6.300781 5.699219 -10.015625 7.757812 c -4.226563 2.371094 -9.285156 4.320313 -14.902344 6.0625 c -5.617188 1.738281 -11.777344 3.273438 -16.300781 4.046875 c -4.535157 0.773438 -7.429688 0.773438 -10.71875 0.238282 c -3.382813 -0.546876 -6.679688 -1.527344 -9.808594 -2.917969 c -2.394531 -1.023438 -4.53125 -2.5625 -6.257813 -4.511719 c -1.339843 -1.609375 -1.957031 -3.265625 -2.503906 -4.535156 c -0.523437 -1.257813 -0.96875 -2.140625 -0.585937 -3.089844 z m 0 0" fill="#b5835a"/>
                </g>
            </g>
        </g>
    </mask>
    <mask id="e">
        <g filter="url(#a)">
            <rect fill-opacity="0.8" height="184.32" width="184.32" x="-28.16" y="-28.16"/>
        </g>
    </mask>
    <linearGradient id="f" gradientTransform="matrix(0 0.37 -0.98462 0 295.38501 -30.360001)" gradientUnits="userSpaceOnUse" x1="300" x2="428" y1="235" y2="235">
        <stop offset="0" stop-color="#f9f06b"/>
        <stop offset="1" stop-color="#f5c211"/>
    </linearGradient>
    <clipPath id="g">
        <rect height="128" width="128"/>
    </clipPath>
    <clipPath id="h">
        <rect height="128" width="128"/>
    </clipPath>
    <path d="m 3.616819 8.610613 h 26.633046 v 19.835186 h -26.633046 z m 0 0" fill="none" stroke="#5e5c64" stroke-linecap="round" stroke-linejoin="round" stroke-width="0.624085" transform="matrix(3.599851 0 0 3.781947 3.04249 -0.045354)"/>
    <path d="m 16.0625 32.519531 h 95.875 v 75.015625 h -95.875 z m 0 0" fill="#5e5c64"/>
    <path d="m 3.597287 10.545174 h 26.673195 v 17.16006 h -26.673195 z m 0 0" fill="none" stroke="#77767b" stroke-linecap="round" stroke-linejoin="round" stroke-width="0.580928" transform="matrix(3.599851 0 0 3.781947 3.04249 -0.045354)"/>
    <path d="m 15.992188 39.835938 h 96.019531 v 64.898437 h -96.019531 z m 0 0" fill="#77767b"/>
    <path d="m 3.605968 8.319345 h 26.653663 v 18.613304 h -26.653663 z m 0 0" fill="none" stroke="#9a9996" stroke-linecap="round" stroke-linejoin="round" stroke-width="0.604819" transform="matrix(3.599851 0 0 3.781947 3.04249 -0.045354)"/>
    <path d="m 16.023438 31.417969 h 95.949218 v 70.394531 h -95.949218 z m 0 0" fill="#9a9996"/>
    <path d="m 3.591861 9.280944 h 26.682961 v 16.771702 h -26.682961 z m 0 0" fill="none" stroke="#c0bfbc" stroke-linecap="round" stroke-linejoin="round" stroke-width="0.574432" transform="matrix(3.599851 0 0 3.781947 3.04249 -0.045354)"/>
    <path d="m 15.972656 35.054688 h 96.054688 v 63.429687 h -96.054688 z m 0 0" fill="#c0bfbc"/>
    <path d="m 3.58101 9.622824 h 26.703578 v 15.547753 h -26.703578 z m 0 0" fill="none" stroke="#deddda" stroke-linecap="round" stroke-linejoin="round" stroke-width="0.553285" transform="matrix(3.599851 0 0 3.781947 3.04249 -0.045354)"/>
    <path d="m 15.933594 36.347656 h 96.128906 v 58.800782 h -96.128906 z m 0 0" fill="#deddda"/>
    <path d="m 3.589691 7.474459 h 26.686217 v 16.787195 h -26.686217 z m 0 0" fill="none" stroke="#f6f5f4" stroke-linecap="round" stroke-linejoin="round" stroke-width="0.574739" transform="matrix(3.599851 0 0 3.781947 3.04249 -0.045354)"/>
    <path d="m 15.964844 28.222656 h 96.066406 v 63.488282 h -96.066406 z m 0 0" fill="#f6f5f4"/>
    <path d="m 2.633024 6.657879 c 0.054947 0.071083 0.093917 0.124945 0.203033 -0.037007 c 0.107946 -0.161953 0.286038 -0.53972 0.445035 -0.80903 c 0.157828 -0.267844 0.296951 -0.428698 0.469977 -0.447751 c 0.173026 -0.020152 0.379956 0.100762 0.662097 0.179907 c 0.282922 0.078045 0.643003 0.112853 1.438767 -0.09087 c 0.794985 -0.205188 2.027212 -0.650008 2.776992 -0.892204 c 0.750169 -0.241829 1.015944 -0.281035 1.165978 -0.323905 s 0.181209 -0.090136 0.1551 -0.20299 c -0.053779 -0.171479 -0.12938 -0.33563 -0.224856 -0.488056 c -0.115351 -0.211784 -0.268113 -0.401217 -0.450102 -0.559139 c -0.199915 -0.163784 -0.460234 -0.287997 -0.685869 -0.369706 c -0.206541 -0.07548 -0.421654 -0.123846 -0.640275 -0.143998 c -0.259539 -0.02858 -0.521417 -0.02455 -0.779787 0.011725 c -0.305134 0.043236 -0.660149 0.135204 -0.985158 0.20812 c -0.323839 0.072915 -0.616113 0.127143 -0.86513 0.186868 c -0.249018 0.060091 -0.454778 0.128976 -0.669892 0.220211 c -0.212775 0.08977 -0.432955 0.20409 -0.666774 0.325004 c -0.23304 0.120915 -0.479329 0.249891 -0.681193 0.368974 c -0.203033 0.119082 -0.363978 0.230104 -0.499983 0.378866 c -0.14224 0.158655 -0.254473 0.341859 -0.332023 0.540086 c -0.079889 0.200058 -0.125873 0.414041 -0.143799 0.637184 c -0.018316 0.221677 -0.007015 0.45288 0.015978 0.630955 c 0.022992 0.178807 0.058844 0.303019 0.111843 0.410011 c 0.054168 0.106991 0.125093 0.196028 0.180041 0.266745 z m 0 0" fill="none" stroke="#c0bfbc" stroke-linecap="round" stroke-linejoin="round" stroke-width="0.264583" transform="matrix(10.023775 0 0 10.660922 -0.283462 -4.233029)"/>
    <path d="m 26.109375 66.746094 c 0.550781 0.757812 0.941406 1.332031 2.035156 -0.394532 c 1.082031 -1.726562 2.867188 -5.753906 4.460938 -8.625 c 1.582031 -2.855468 2.976562 -4.570312 4.710937 -4.773437 c 1.734375 -0.214844 3.808594 1.074219 6.636719 1.917969 c 2.835937 0.832031 6.445313 1.203125 14.421875 -0.96875 c 7.96875 -2.1875 20.320312 -6.929688 27.835938 -9.511719 c 7.519531 -2.578125 10.183593 -2.996094 11.6875 -3.453125 c 1.503906 -0.457031 1.816406 -0.960938 1.554687 -2.164062 c -0.539063 -1.828126 -1.296875 -3.578126 -2.253906 -5.203126 c -1.15625 -2.257812 -2.6875 -4.277343 -4.511719 -5.960937 c -2.003906 -1.746094 -4.613281 -3.070313 -6.875 -3.941406 c -2.070312 -0.804688 -4.226562 -1.320313 -6.417969 -1.535157 c -2.601562 -0.304687 -5.226562 -0.261718 -7.816406 0.125 c -3.058594 0.460938 -6.617187 1.441407 -9.875 2.21875 c -3.246094 0.777344 -6.175781 1.355469 -8.671875 1.992188 c -2.496094 0.640625 -4.558594 1.375 -6.714844 2.347656 c -2.132812 0.957032 -4.339844 2.175782 -6.683594 3.464844 c -2.335937 1.289062 -4.804687 2.664062 -6.828124 3.933594 c -2.035157 1.269531 -3.648438 2.453125 -5.011719 4.039062 c -1.425781 1.691406 -2.550781 3.644532 -3.328125 5.757813 c -0.800782 2.132812 -1.261719 4.414062 -1.441406 6.792969 c -0.183594 2.363281 -0.070313 4.828124 0.160156 6.726562 c 0.230468 1.90625 0.589844 3.230469 1.121094 4.371094 c 0.542968 1.140625 1.253906 2.089844 1.804687 2.84375 z m 0 0" fill="#c0bfbc"/>
    <path d="m 26.19531600692 62.83593666216 c 0.5664022327 0.73046463508 0.96874206302 1.28515033292 2.08984029834 -0.38281227222 c 1.1132769073 -1.66797290992 2.94921773122 -5.56640514606 4.5859362434 -8.33593842842 c 1.62890748894 -2.76172225912 3.06249817776 -4.42187384102 4.84375153422 -4.61719064114 c 1.78515886808 -0.20703333498 3.91797009902 1.03906188174 6.82421689764 1.85546838202 c 2.91405782186 0.80468996542 6.6249945859 1.16406916792 14.82812500968 -0.93749797006 c 8.19140358414 -2.11328367284 20.88671736288 -6.69921991624 28.61718813762 -9.1914000449 c 7.72655495834 -2.49609594506 10.46874965936 -2.89844608016 12.0117152831 -3.33985133146 c 1.54687113536 -0.44531076292 1.86718491688 -0.92968694682 1.5976530912 -2.09374580996 c -0.55468569784 -1.76563130998 -1.33202677714 -3.45703728962 -2.31640119142 -5.0273414947 c -1.18750223764 -2.18359318678 -2.76172225912 -4.13281445724 -4.63671819924 -5.76172194618 c -2.062501717 -1.68750046802 -4.74218762254 -2.9648397777 -7.0703156536 -3.81250067572 c -2.1250002077 -0.77343556768 -4.34375330384 -1.27343379806 -6.59375049294 -1.48437264466 c -2.67578039392 -0.29297520018 -5.37499385756 -0.25000426758 -8.03905771662 0.1249969814 c -3.14453453134 0.44531076292 -6.80078382792 1.390630061 -10.14843587784 2.1445277658 c -3.33985133146 0.75000249796 -6.34766204176 1.30859370742 -8.91406750076 1.92578820074 c -2.566405459 0.61718418854 -4.6914056667 1.32812126552 -6.90625325122 2.26561923558 c -2.19530972164 0.92968694682 -4.46092895722 2.1054726496 -6.87109334186 3.35156786632 c -2.40234305662 1.24609521672 -4.93749411788 2.57421648224 -7.01952339298 3.80078414086 c -2.08985060312 1.22655735384 -3.75000218502 2.37108865888 -5.15234878088 3.90624325938 c -1.46484508656 1.63671851218 -2.62109292646 3.51953578032 -3.42187738026 5.56640514606 c -0.82421752352 2.05859620538 -1.29686686778 4.26562246188 -1.48437264466 6.56250639998 c -0.18358996048 2.28906261008 -0.07030951394 4.6679622922 0.167967914 6.50390311612 c 0.2343822211 1.84375184716 0.60546765368 3.12109115684 1.15234232828 4.22265152928 c 0.55860151424 1.10157067722 1.28906614932 2.0195307844 1.8554786868 2.75391123588 z m 0 0" fill="none" stroke="#865e3c" stroke-linecap="round" stroke-linejoin="round" stroke-width="2.72646960674"/>
    <path d="m 26.195312 62.835938 c 0.566407 0.730468 0.96875 1.285156 2.089844 -0.382813 c 1.113282 -1.667969 2.949219 -5.566406 4.585938 -8.335937 c 1.628906 -2.761719 3.0625 -4.421876 4.84375 -4.617188 c 1.785156 -0.207031 3.917968 1.039062 6.824218 1.855469 c 2.914063 0.804687 6.625 1.164062 14.828126 -0.9375 c 8.191406 -2.113281 20.886718 -6.699219 28.617187 -9.191407 c 7.726563 -2.496093 10.46875 -2.898437 12.011719 -3.339843 c 1.546875 -0.445313 1.867187 -0.929688 1.597656 -2.09375 c -0.554688 -1.765625 -1.332031 -3.457031 -2.316406 -5.027344 c -1.1875 -2.183594 -2.761719 -4.132813 -4.636719 -5.761719 c -2.0625 -1.6875 -4.742187 -2.964844 -7.070313 -3.8125 c -2.125 -0.773437 -4.34375 -1.273437 -6.59375 -1.484375 c -2.675781 -0.292969 -5.375 -0.25 -8.039062 0.125 c -3.144531 0.445313 -6.800781 1.390625 -10.148438 2.144531 c -3.339843 0.75 -6.347656 1.308594 -8.914062 1.925782 c -2.566406 0.617187 -4.691406 1.328125 -6.90625 2.265625 c -2.195312 0.929687 -4.460938 2.105469 -6.871094 3.351562 c -2.402344 1.246094 -4.9375 2.574219 -7.019531 3.800781 c -2.089844 1.226563 -3.75 2.371094 -5.152344 3.90625 c -1.464843 1.636719 -2.621093 3.519532 -3.421875 5.566407 c -0.824218 2.058593 -1.296875 4.265625 -1.484375 6.5625 c -0.183593 2.289062 -0.070312 4.667969 0.167969 6.503906 c 0.234375 1.84375 0.605469 3.121094 1.152344 4.222656 c 0.558594 1.101563 1.289062 2.019531 1.855468 2.753907 z m 0 0" fill="#865e3c"/>
    <path d="m 9.686188 3.764035 c -0.130129 -0.29284 -0.304139 -0.430917 -0.509168 -0.515182 c -0.205029 -0.083847 -0.439942 -0.111796 -0.907877 -0.010012 c -0.468313 0.100117 -1.170027 0.332053 -1.956097 0.619053 c -0.787206 0.286166 -1.659903 0.628231 -2.105141 1.00909 c -0.445995 0.380025 -0.464909 0.800097 -0.309813 0.963203 c 0.153961 0.16394 0.483066 0.07175 0.944949 -0.05715 c 0.575745 -0.158935 1.148843 -0.327464 1.718914 -0.50517 c 0.661994 -0.208993 1.392079 -0.458033 1.973877 -0.516851 c 0.582176 -0.06007 1.016066 0.070081 1.190076 -0.088019 c 0.175144 -0.158101 0.090031 -0.606121 -0.03972 -0.898962 z m 0 0" fill="none" stroke="#63452c" stroke-linecap="round" stroke-linejoin="round" stroke-width="0.264583" transform="matrix(10.326285 0 0 9.364103 -1.080934 -2.07494)"/>
    <path d="m 98.941406 33.171875 c -1.34375 -2.742187 -3.140625 -4.035156 -5.257812 -4.824219 c -2.117188 -0.785156 -4.542969 -1.046875 -9.375 -0.09375 c -4.835938 0.9375 -12.082032 3.109375 -20.199219 5.796875 c -8.128906 2.679688 -17.140625 5.882813 -21.738281 9.449219 c -4.605469 3.558594 -4.800782 7.492188 -3.199219 9.019531 c 1.589844 1.535157 4.988281 0.671875 9.757813 -0.535156 c 5.945312 -1.488281 11.863281 -3.066406 17.75 -4.730469 c 6.835937 -1.957031 14.375 -4.289062 20.382812 -4.839844 c 6.011719 -0.5625 10.492188 0.65625 12.289062 -0.824218 c 1.808594 -1.480469 0.929688 -5.675782 -0.410156 -8.417969 z m 0 0" fill="#63452c"/>
    <path d="m 2.781985 6.764961 c 0.037905 -0.093006 0.155069 -0.191978 0.276061 -0.438006 c 0.120993 -0.246027 0.245814 -0.637003 0.382887 -0.851092 c 0.137074 -0.213739 0.287166 -0.249888 0.413136 -0.193733 c 0.127118 0.05475 0.230115 0.200752 0.394756 0.294811 c 0.166173 0.095112 0.393991 0.137228 0.696089 0.10915 c 0.303247 -0.02913 0.680008 -0.128102 1.368056 -0.353071 c 0.768837 -0.253749 1.533463 -0.51943 2.293877 -0.797044 c 0.610322 -0.223917 0.835077 -0.323942 1.020011 -0.349913 c 0.150475 -0.029833 0.30631 0.005966 0.428068 0.098972 c 0.096105 0.08002 0.142051 0.194084 0.178043 0.345 c 0.034842 0.151968 0.060113 0.340086 0.053221 0.533117 c -0.008041 0.207421 -0.054753 0.412034 -0.137074 0.60296 c -0.089978 0.215844 -0.233178 0.449938 -0.468271 0.702985 c -0.283336 0.299023 -0.611087 0.553122 -0.971767 0.752822 c -0.410072 0.230234 -0.900934 0.419053 -1.446165 0.588219 c -0.544848 0.168815 -1.142918 0.317975 -1.58209 0.392731 c -0.439937 0.075107 -0.720976 0.075107 -1.039921 0.023164 c -0.328135 -0.053347 -0.647845 -0.148459 -0.951858 -0.282879 c -0.232412 -0.099323 -0.439554 -0.249186 -0.606876 -0.438006 c -0.130182 -0.156179 -0.190295 -0.317273 -0.243133 -0.440111 c -0.050924 -0.122136 -0.09419 -0.208123 -0.05705 -0.300076 z m 0 0" fill="none" stroke="#c0bfbc" stroke-linecap="round" stroke-linejoin="round" stroke-width="0.264583" transform="matrix(10.202092 0 0 11.129994 -0.604718 -8.239289)"/>
    <path d="m 27.777344 67.054688 c 0.386718 -1.035157 1.582031 -2.136719 2.816406 -4.875 c 1.234375 -2.738282 2.507812 -7.089844 3.90625 -9.472657 c 1.398438 -2.378906 2.929688 -2.78125 4.214844 -2.15625 c 1.296875 0.609375 2.347656 2.234375 4.027344 3.28125 c 1.695312 1.058594 4.019531 1.527344 7.101562 1.214844 c 3.09375 -0.324219 6.9375 -1.425781 13.957031 -3.929687 c 7.84375 -2.824219 15.644531 -5.78125 23.402344 -8.871094 c 6.226563 -2.492188 8.519531 -3.605469 10.40625 -3.894532 c 1.535156 -0.332031 3.125 0.066407 4.367187 1.101563 c 0.980469 0.890625 1.449219 2.160156 1.816407 3.839844 c 0.355469 1.691406 0.613281 3.785156 0.542969 5.933593 c -0.082032 2.308594 -0.558594 4.585938 -1.398438 6.710938 c -0.917969 2.402344 -2.378906 5.007812 -4.777344 7.824219 c -2.890625 3.328125 -6.234375 6.15625 -9.914062 8.378906 c -4.183594 2.5625 -9.191406 4.664063 -14.753906 6.546875 c -5.558594 1.878906 -11.660157 3.539062 -16.140626 4.371094 c -4.488281 0.835937 -7.355468 0.835937 -10.609374 0.257812 c -3.347657 -0.59375 -6.609376 -1.652344 -9.710938 -3.148437 c -2.371094 -1.105469 -4.484375 -2.773438 -6.191406 -4.875 c -1.328125 -1.738281 -1.941406 -3.53125 -2.480469 -4.898438 c -0.519531 -1.359375 -0.960937 -2.316406 -0.582031 -3.339843 z m 0 0" fill="#c0bfbc"/>
    <path d="m 27.73047060742 63.9374970346 c 0.39062329546 -0.96094134456 1.5976530912 -1.98046536342 2.84374830792 -4.51562672946 c 1.24609521672 -2.53515106126 2.53515106126 -6.5624960952 3.94530868036 -8.76953265648 c 1.41406313072 -2.20312074488 2.96093426608 -2.57421648224 4.25781143864 -1.9960874099 c 1.30859370742 0.5664022327 2.37109896366 2.07031274024 4.07031596654 3.03906510804 c 1.71093353774 0.97655308626 4.0585891269 1.41014731432 7.1718692605 1.12108793054 c 3.12110146162 -0.29687040702 7.0078171629 -1.31640473066 14.0976603746 -3.63672173848 c 7.92187175846 -2.61328190322 15.8007828891 -5.35156078784 23.64062859876 -8.21093114224 c 6.28515324628 -2.30860047296 8.6015544377 -3.33984102668 10.50780477556 -3.60937285236 c 1.55078695176 -0.30859724666 3.1562510662 0.06640400232 4.41015730616 1.02342953048 c 0.99218543752 0.82421752352 1.46484508656 1.99609771468 1.83594082392 3.55469568968 c 0.35936889772 1.56639869346 0.61718418854 3.50390342906 0.5468746746 5.49217981572 c -0.08203635358 2.14063255896 -0.56249672108 4.24609490378 -1.41406313072 6.21093822072 c -0.9257814352 2.22656411938 -2.398437545 4.64062371086 -4.8203184645 7.24609459084 c -2.9218688451 3.08203604064 -6.30077529276 5.69922345548 -10.01561756842 7.75780935608 c -4.22656734568 2.37109896366 -9.28515293334 4.32032023412 -14.90234003524 6.0625081696 c -5.61719740668 1.73827211908 -11.77734336678 3.27343702436 -16.30078111948 4.04687259204 c -4.53516459234 0.77343556768 -7.4296948561 0.77343556768 -10.71875392694 0.23827742794 c -3.38281195928 -0.5468746746 -6.67969235814 -1.52734357726 -9.80859453822 -2.91796333348 c -2.39453203338 -1.02343983526 -4.53124877594 -2.56249994738 -6.25781466494 -4.51172121784 c -1.33983780038 -1.60937993084 -1.9570322937 -3.26562600112 -2.5039069683 -4.53515428756 c -0.5234313001 -1.25781175158 -0.96874206302 -2.14063255896 -0.5859297908 -3.08984706388 z m 0 0" fill="none" stroke="#b5835a" stroke-linecap="round" stroke-linejoin="round" stroke-width="2.72646960674"/>
    <path d="m 27.730469 63.9375 c 0.390625 -0.960938 1.597656 -1.980469 2.84375 -4.515625 c 1.246093 -2.535156 2.535156 -6.5625 3.945312 -8.769531 c 1.414063 -2.203125 2.960938 -2.574219 4.257813 -1.996094 c 1.308594 0.566406 2.371094 2.070312 4.070312 3.039062 c 1.710938 0.976563 4.058594 1.410157 7.171875 1.121094 c 3.121094 -0.296875 7.007813 -1.316406 14.097657 -3.636718 c 7.921874 -2.613282 15.800781 -5.351563 23.640624 -8.210938 c 6.285157 -2.308594 8.601563 -3.339844 10.507813 -3.609375 c 1.550781 -0.308594 3.15625 0.066406 4.410156 1.023437 c 0.992188 0.824219 1.464844 1.996094 1.835938 3.554688 c 0.359375 1.566406 0.617187 3.503906 0.546875 5.492188 c -0.082032 2.140624 -0.5625 4.246093 -1.414063 6.210937 c -0.925781 2.226563 -2.398437 4.640625 -4.820312 7.246094 c -2.921875 3.082031 -6.300781 5.699219 -10.015625 7.757812 c -4.226563 2.371094 -9.285156 4.320313 -14.902344 6.0625 c -5.617188 1.738281 -11.777344 3.273438 -16.300781 4.046875 c -4.535157 0.773438 -7.429688 0.773438 -10.71875 0.238282 c -3.382813 -0.546876 -6.679688 -1.527344 -9.808594 -2.917969 c -2.394531 -1.023438 -4.53125 -2.5625 -6.257813 -4.511719 c -1.339843 -1.609375 -1.957031 -3.265625 -2.503906 -4.535156 c -0.523437 -1.257813 -0.96875 -2.140625 -0.585937 -3.089844 z m 0 0" fill="#b5835a"/>
    <g mask="url(#d)">
        <g clip-path="url(#h)">
            <g mask="url(#e)">
                <g clip-path="url(#g)">
                    <path d="m 128 80.640625 v 47.359375 h -128 v -47.359375 z m 0 0" fill="url(#f)"/>
                    <path d="m 13.308594 80.640625 l 47.355468 47.359375 h 21.214844 l -47.359375 -47.359375 z m 42.421875 0 l 47.363281 47.359375 h 21.214844 l -47.363282 -47.359375 z m 42.429687 0 l 29.839844 29.839844 v -21.210938 l -8.628906 -8.628906 z m -98.160156 7.90625 v 21.214844 l 18.238281 18.238281 h 21.214844 z m 0 0"/>
                </g>
            </g>
        </g>
    </g>
</svg>
