<?xml version="1.0" encoding="UTF-8"?>
<svg height="128px" viewBox="0 0 128 128" width="128px" xmlns="http://www.w3.org/2000/svg" xmlns:xlink="http://www.w3.org/1999/xlink">
    <filter id="a" height="100%" width="100%" x="0%" y="0%">
        <feColorMatrix color-interpolation-filters="sRGB" values="0 0 0 0 1 0 0 0 0 1 0 0 0 0 1 0 0 0 1 0"/>
    </filter>
    <clipPath id="b">
        <rect height="128" width="128"/>
    </clipPath>
    <clipPath id="c">
        <rect height="128" width="128"/>
    </clipPath>
    <mask id="d">
        <g filter="url(#a)">
            <g clip-path="url(#c)" filter="url(#a)">
                <g clip-path="url(#b)">
                    <path d="m 16.4375 28.03125 h 95.121094 c 4.660156 0 8.441406 3.96875 8.441406 8.867188 v 70.265624 c 0 4.898438 -3.78125 8.867188 -8.441406 8.867188 h -95.121094 c -4.660156 0 -8.4375 -3.96875 -8.4375 -8.867188 v -70.265624 c 0 -4.898438 3.777344 -8.867188 8.4375 -8.867188 z m 0 0" fill="#deddda"/>
                    <path d="m 15.78125 101.90625 h 96.4375 v 14.125 h -96.4375 z m 0 0" fill="#c0bfbc"/>
                    <path d="m 15.769531 28.03125 h 96.460938 c 4.289062 0 7.769531 3.65625 7.769531 8.160156 v 64.679688 c 0 4.507812 -3.480469 8.164062 -7.769531 8.164062 h -96.460938 c -4.292969 0 -7.769531 -3.65625 -7.769531 -8.164062 v -64.679688 c 0 -4.503906 3.476562 -8.160156 7.769531 -8.160156 z m 0 0" fill="#f6f5f4"/>
                    <path d="m 2.633161 6.657863 c 0.054861 0.071083 0.093999 0.125181 0.202717 -0.036799 c 0.108049 -0.161981 0.286011 -0.54004 0.445241 -0.808959 c 0.157892 -0.267975 0.296716 -0.429012 0.469996 -0.448198 c 0.172945 -0.019815 0.380011 0.100963 0.662008 0.180223 c 0.283001 0.078002 0.642941 0.112915 1.438755 -0.091212 c 0.795146 -0.205071 2.02717 -0.649809 2.777156 -0.891993 c 0.749986 -0.24187 1.015927 -0.280871 1.166125 -0.323961 c 0.149863 -0.04309 0.180973 -0.089954 0.154881 -0.202869 c -0.053857 -0.171731 -0.129458 -0.335598 -0.22513 -0.488143 c -0.115408 -0.211675 -0.267613 -0.401019 -0.449924 -0.558911 c -0.200041 -0.164182 -0.459961 -0.288105 -0.686094 -0.370196 c -0.206062 -0.075171 -0.421156 -0.123608 -0.63993 -0.143738 c -0.259584 -0.028622 -0.521511 -0.024533 -0.780092 0.011952 c -0.304745 0.04309 -0.660001 0.134931 -0.984817 0.207901 c -0.324146 0.07297 -0.616179 0.127068 -0.865059 0.187143 c -0.248881 0.059759 -0.454943 0.128955 -0.670037 0.219853 c -0.213087 0.089954 -0.432864 0.204126 -0.667026 0.324904 c -0.232823 0.121092 -0.479027 0.250048 -0.681075 0.369253 c -0.202717 0.11889 -0.363954 0.229917 -0.499768 0.379002 c -0.142169 0.158521 -0.254567 0.341574 -0.332175 0.54004 c -0.079949 0.199723 -0.125778 0.413915 -0.143842 0.636913 c -0.018064 0.222055 -0.007025 0.452916 0.016057 0.630937 c 0.022747 0.178965 0.058875 0.302888 0.111728 0.410141 c 0.054192 0.106939 0.12511 0.195949 0.180305 0.266717 z m 0 0" fill="none" stroke="#c0bfbc" stroke-linecap="round" stroke-linejoin="round" stroke-width="0.264583" transform="matrix(11.677302 0 0 12.419519 -10.884932 -3.378864)"/>
                    <path d="m 19.863281 79.308594 c 0.640625 0.882812 1.097657 1.554687 2.367188 -0.457032 c 1.261719 -2.011718 3.339843 -6.707031 5.199219 -10.046874 c 1.84375 -3.328126 3.464843 -5.328126 5.488281 -5.566407 c 2.019531 -0.246093 4.4375 1.253907 7.730469 2.238281 c 3.304687 0.96875 7.507812 1.402344 16.800781 -1.132812 c 9.285156 -2.546875 23.671875 -8.070312 32.429687 -11.078125 c 8.757813 -3.003906 11.863282 -3.488281 13.617188 -4.023437 c 1.75 -0.535157 2.113281 -1.117188 1.808594 -2.519532 c -0.628907 -2.132812 -1.511719 -4.167968 -2.628907 -6.0625 c -1.347656 -2.628906 -3.125 -4.980468 -5.253906 -6.941406 c -2.335937 -2.039062 -5.371094 -3.578125 -8.011719 -4.597656 c -2.40625 -0.933594 -4.917968 -1.535156 -7.472656 -1.785156 c -3.03125 -0.355469 -6.089844 -0.304688 -9.109375 0.148437 c -3.558594 0.535156 -7.707031 1.675781 -11.5 2.582031 c -3.785156 0.90625 -7.195313 1.578125 -10.101563 2.324219 c -2.90625 0.742187 -5.3125 1.601563 -7.824218 2.730469 c -2.488282 1.117187 -5.054688 2.535156 -7.789063 4.035156 c -2.71875 1.503906 -5.59375 3.105469 -7.953125 4.585938 c -2.367187 1.476562 -4.25 2.855468 -5.835937 4.707031 c -1.660157 1.96875 -2.972657 4.242187 -3.878907 6.707031 c -0.933593 2.480469 -1.46875 5.140625 -1.679687 7.910156 c -0.210937 2.757813 -0.082031 5.625 0.1875 7.835938 c 0.265625 2.222656 0.6875 3.761718 1.304687 5.09375 c 0.632813 1.328125 1.460938 2.433594 2.105469 3.3125 z m 0 0" fill="#c0bfbc"/>
                    <path d="m 2.633092 6.658092 c 0.054991 0.070937 0.094039 0.124952 0.203046 -0.037095 c 0.107706 -0.162046 0.286022 -0.540155 0.444815 -0.808931 c 0.158142 -0.268126 0.297085 -0.429196 0.470195 -0.448069 c 0.172785 -0.019849 0.379736 0.100872 0.661854 0.179943 c 0.283093 0.078095 0.64298 0.112912 1.438896 -0.090785 c 0.79494 -0.204999 2.02721 -0.650139 2.777246 -0.892233 c 0.749709 -0.241768 1.015883 -0.280816 1.16589 -0.323768 c 0.150007 -0.043277 0.180919 -0.090134 0.154888 -0.203046 c -0.053691 -0.171809 -0.129182 -0.335808 -0.224848 -0.488092 c -0.115516 -0.211833 -0.2678 -0.401212 -0.450022 -0.559029 c -0.200117 -0.163999 -0.460108 -0.287974 -0.685932 -0.369974 c -0.2063 -0.075166 -0.421386 -0.12365 -0.640052 -0.14415 c -0.259665 -0.028309 -0.521608 -0.024405 -0.779971 0.01204 c -0.305221 0.042952 -0.660227 0.135039 -0.984971 0.208252 c -0.324093 0.072889 -0.615972 0.126904 -0.865225 0.186777 c -0.248927 0.060198 -0.454902 0.129182 -0.669988 0.219967 c -0.212808 0.090134 -0.432775 0.204023 -0.66706 0.32507 c -0.232982 0.121047 -0.478981 0.249903 -0.680726 0.368997 c -0.203046 0.119095 -0.364117 0.230055 -0.500132 0.379086 c -0.142197 0.158792 -0.254458 0.341664 -0.331902 0.53983 c -0.080048 0.200118 -0.126254 0.414227 -0.14415 0.637123 c -0.017897 0.221919 -0.006834 0.45295 0.015944 0.630941 c 0.023103 0.178967 0.059222 0.302942 0.112261 0.409997 c 0.05369 0.107055 0.124952 0.196213 0.179944 0.267149 z m 0 0" fill="none" stroke="#865e3c" stroke-linecap="round" stroke-linejoin="round" stroke-width="0.264583" transform="matrix(12.004644 0 0 12.004644 -11.648389 -5.174122)"/>
                    <path d="m 19.960938 74.753906 c 0.660156 0.851563 1.128906 1.5 2.4375 -0.445312 c 1.292968 -1.945313 3.433593 -6.484375 5.339843 -9.710938 c 1.898438 -3.21875 3.566407 -5.152344 5.644531 -5.378906 c 2.074219 -0.238281 4.558594 1.210938 7.945313 2.160156 c 3.398437 0.9375 7.71875 1.355469 17.273437 -1.089844 c 9.542969 -2.460937 24.335938 -7.804687 33.339844 -10.710937 c 9 -2.902344 12.195313 -3.371094 13.996094 -3.886719 c 1.800781 -0.519531 2.171875 -1.082031 1.859375 -2.4375 c -0.644531 -2.0625 -1.550781 -4.03125 -2.699219 -5.859375 c -1.386718 -2.542969 -3.214844 -4.816406 -5.402344 -6.710937 c -2.402343 -1.96875 -5.523437 -3.457032 -8.234374 -4.441406 c -2.476563 -0.902344 -5.058594 -1.484376 -7.683594 -1.730469 c -3.117188 -0.339844 -6.261719 -0.292969 -9.363282 0.144531 c -3.664062 0.515625 -7.925781 1.621094 -11.824218 2.5 c -3.890625 0.875 -7.394532 1.523438 -10.386719 2.242188 c -2.988281 0.722656 -5.460937 1.550781 -8.042969 2.640624 c -2.554687 1.082032 -5.195312 2.449219 -8.007812 3.902344 c -2.796875 1.453125 -5.75 3 -8.171875 4.429688 c -2.4375 1.429687 -4.371094 2.761718 -6.003907 4.550781 c -1.707031 1.90625 -3.054687 4.101563 -3.984374 6.480469 c -0.960938 2.402344 -1.515626 4.972656 -1.730469 7.648437 c -0.214844 2.664063 -0.082031 5.4375 0.191406 7.574219 c 0.277344 2.148438 0.710937 3.636719 1.347656 4.921875 c 0.644531 1.285156 1.5 2.355469 2.160157 3.207031 z m 0 0" fill="#865e3c"/>
                    <path d="m 9.685864 3.764038 c -0.129887 -0.292912 -0.303936 -0.431132 -0.508833 -0.514923 c -0.204898 -0.08415 -0.439994 -0.11208 -0.907912 -0.010027 c -0.468244 0.099906 -1.16996 0.331943 -1.956102 0.618768 c -0.787117 0.286108 -1.65996 0.628078 -2.105148 1.009078 c -0.445838 0.379926 -0.464997 0.799958 -0.309781 0.963244 c 0.153916 0.163644 0.482856 0.071974 0.94493 -0.057294 c 0.575725 -0.158988 1.148852 -0.327288 1.719057 -0.504897 c 0.661776 -0.20912 1.392067 -0.457988 1.973962 -0.517072 c 0.581895 -0.0598 1.016043 0.070185 1.190092 -0.088088 c 0.175023 -0.157915 0.089947 -0.605877 -0.040265 -0.898789 z m 0 0" fill="none" stroke="#63452c" stroke-linecap="round" stroke-linejoin="round" stroke-width="0.264583" transform="matrix(12.029664 0 0 10.908781 -11.818467 -0.857944)"/>
                    <path d="m 104.699219 40.203125 c -1.5625 -3.195313 -3.65625 -4.703125 -6.121094 -5.617187 c -2.464844 -0.917969 -5.292969 -1.222657 -10.921875 -0.109376 c -5.632812 1.089844 -14.074219 3.621094 -23.53125 6.75 c -9.46875 3.121094 -19.96875 6.851563 -25.324219 11.007813 c -5.363281 4.144531 -5.59375 8.726563 -3.726562 10.507813 c 1.851562 1.785156 5.808593 0.785156 11.367187 -0.625 c 6.925782 -1.734376 13.820313 -3.570313 20.679688 -5.507813 c 7.960937 -2.28125 16.746094 -4.996094 23.746094 -5.640625 c 7 -0.652344 12.222656 0.765625 14.316406 -0.960938 c 2.105468 -1.722656 1.082031 -6.609374 -0.484375 -9.804687 z m 0 0" fill="#63452c"/>
                    <path d="m 2.781969 6.764985 c 0.038126 -0.093092 0.155133 -0.191909 0.276084 -0.438046 c 0.120951 -0.245836 0.245846 -0.636884 0.382902 -0.851087 c 0.137055 -0.213902 0.286929 -0.249753 0.413139 -0.193717 c 0.126867 0.054832 0.23007 0.200947 0.395063 0.294943 c 0.165979 0.0949 0.393748 0.136777 0.695796 0.10906 c 0.303035 -0.029223 0.680021 -0.12804 1.367929 -0.353088 c 0.768761 -0.25397 1.533579 -0.519389 2.294124 -0.79716 c 0.610013 -0.223843 0.835153 -0.323865 1.019866 -0.349774 c 0.150531 -0.030127 0.306321 0.006026 0.428258 0.098817 c 0.095972 0.080137 0.141986 0.194017 0.177811 0.344954 c 0.035168 0.152141 0.060147 0.340133 0.052916 0.533247 c -0.007888 0.207575 -0.054231 0.412137 -0.136727 0.602841 c -0.090056 0.21601 -0.233028 0.450097 -0.468028 0.703163 c -0.283643 0.299161 -0.611328 0.553131 -0.972208 0.752873 c -0.409853 0.229869 -0.900888 0.419066 -1.445824 0.588079 c -0.544937 0.169012 -1.143118 0.317839 -1.582222 0.392855 c -0.439762 0.075016 -0.720776 0.075016 -1.039916 0.023198 c -0.328013 -0.053325 -0.648139 -0.148526 -0.951831 -0.283194 c -0.23237 -0.099419 -0.439762 -0.248848 -0.607055 -0.438046 c -0.130154 -0.155756 -0.189972 -0.316935 -0.242888 -0.439853 c -0.051273 -0.122015 -0.094 -0.208178 -0.057189 -0.300065 z m 0 0" fill="none" stroke="#c0bfbc" stroke-linecap="round" stroke-linejoin="round" stroke-width="0.264583" transform="matrix(11.884985 0 0 12.965957 -11.262881 -8.046535)"/>
                    <path d="m 21.800781 79.667969 c 0.453125 -1.207031 1.84375 -2.488281 3.28125 -5.679688 c 1.4375 -3.1875 2.921875 -8.257812 4.550781 -11.035156 c 1.628907 -2.773437 3.410157 -3.238281 4.910157 -2.511719 c 1.507812 0.710938 2.734375 2.605469 4.695312 3.824219 c 1.972657 1.230469 4.679688 1.773437 8.269531 1.414063 c 3.601563 -0.378907 8.082032 -1.660157 16.257813 -4.578126 c 9.136719 -3.292968 18.226563 -6.734374 27.265625 -10.335937 c 7.25 -2.902344 9.925781 -4.199219 12.121094 -4.535156 c 1.789062 -0.390625 3.640625 0.078125 5.089844 1.28125 c 1.140624 1.039062 1.6875 2.515625 2.113281 4.472656 c 0.417969 1.972656 0.714843 4.410156 0.628906 6.914063 c -0.09375 2.691406 -0.644531 5.34375 -1.625 7.816406 c -1.070313 2.800781 -2.769531 5.835937 -5.5625 9.117187 c -3.371094 3.878907 -7.265625 7.171875 -11.554687 9.761719 c -4.871094 2.980469 -10.707032 5.433594 -17.183594 7.625 c -6.476563 2.191406 -13.585938 4.121094 -18.804688 5.09375 c -5.226562 0.972656 -8.566406 0.972656 -12.359375 0.300781 c -3.898437 -0.691406 -7.703125 -1.925781 -11.3125 -3.671875 c -2.761719 -1.289062 -5.226562 -3.226562 -7.214843 -5.679687 c -1.546876 -2.019531 -2.257813 -4.109375 -2.886719 -5.703125 c -0.609375 -1.582032 -1.117188 -2.699219 -0.679688 -3.890625 z m 0 0" fill="#c0bfbc"/>
                    <path d="m 2.782122 6.765147 c 0.037746 -0.093063 0.154888 -0.192308 0.275935 -0.438307 c 0.121047 -0.245998 0.245999 -0.636797 0.38299 -0.850907 c 0.136991 -0.213785 0.286998 -0.249904 0.412926 -0.193936 c 0.126904 0.054992 0.230054 0.201094 0.39503 0.295134 c 0.165951 0.095015 0.394053 0.136991 0.696019 0.109007 c 0.302943 -0.029286 0.680076 -0.128206 1.367961 -0.353054 c 0.768908 -0.253808 1.533586 -0.519655 2.294034 -0.797217 c 0.610115 -0.223872 0.834963 -0.323768 1.020113 -0.3498 c 0.150007 -0.029936 0.305871 0.006183 0.427894 0.09892 c 0.095992 0.080048 0.141872 0.193936 0.177991 0.344919 c 0.035143 0.151959 0.059873 0.340038 0.053039 0.532997 c -0.008134 0.207927 -0.05434 0.412275 -0.136991 0.602957 c -0.090134 0.216062 -0.232983 0.450021 -0.467918 0.703178 c -0.283744 0.299363 -0.611417 0.553171 -0.97228 0.752964 c -0.409997 0.230054 -0.901018 0.419108 -1.445729 0.587988 c -0.545037 0.16888 -1.143113 0.317911 -1.58207 0.393077 c -0.439934 0.074841 -0.721075 0.074841 -1.039962 0.022778 c -0.328324 -0.053039 -0.648187 -0.148055 -0.952106 -0.282768 c -0.232332 -0.099246 -0.439608 -0.248927 -0.606861 -0.437982 c -0.130158 -0.156189 -0.190031 -0.316934 -0.24307 -0.439934 c -0.051087 -0.122023 -0.09404 -0.208252 -0.056945 -0.300014 z m 0 0" fill="none" stroke="#b5835a" stroke-linecap="round" stroke-linejoin="round" stroke-width="0.264583" transform="matrix(12.004644 0 0 12.004644 -11.648389 -5.174122)"/>
                    <path d="m 21.75 76.039062 c 0.453125 -1.117187 1.859375 -2.308593 3.3125 -5.261718 s 2.953125 -7.644532 4.597656 -10.214844 c 1.644532 -2.566406 3.445313 -3 4.957032 -2.328125 c 1.523437 0.660156 2.761718 2.414063 4.742187 3.542969 c 1.992187 1.140625 4.730469 1.644531 8.355469 1.308594 c 3.636718 -0.351563 8.164062 -1.539063 16.421875 -4.238282 c 9.230469 -3.046875 18.410156 -6.238281 27.539062 -9.570312 c 7.324219 -2.6875 10.023438 -3.886719 12.246094 -4.199219 c 1.800781 -0.359375 3.671875 0.074219 5.136719 1.1875 c 1.152344 0.960937 1.703125 2.328125 2.136718 4.140625 c 0.421876 1.824219 0.71875 4.082031 0.636719 6.398438 c -0.097656 2.496093 -0.652343 4.949218 -1.644531 7.238281 c -1.082031 2.59375 -2.796875 5.402343 -5.617188 8.441406 c -3.40625 3.59375 -7.339843 6.640625 -11.671874 9.039063 c -4.921876 2.761718 -10.816407 5.03125 -17.355469 7.058593 c -6.542969 2.027344 -13.722657 3.816407 -18.992188 4.71875 c -5.28125 0.898438 -8.65625 0.898438 -12.484375 0.273438 c -3.941406 -0.636719 -7.78125 -1.777344 -11.429687 -3.394531 c -2.789063 -1.191407 -5.277344 -2.988282 -7.285157 -5.257813 c -1.5625 -1.875 -2.28125 -3.804687 -2.917968 -5.28125 c -0.613282 -1.464844 -1.128906 -2.5 -0.683594 -3.601563 z m 0 0" fill="#b5835a"/>
                </g>
            </g>
        </g>
    </mask>
    <mask id="e">
        <g filter="url(#a)">
            <rect fill-opacity="0.8" height="184.32" width="184.32" x="-28.16" y="-28.16"/>
        </g>
    </mask>
    <linearGradient id="f" gradientTransform="matrix(0 0.37 -0.98462 0 295.38501 -30.360001)" gradientUnits="userSpaceOnUse" x1="300" x2="428" y1="235" y2="235">
        <stop offset="0" stop-color="#f9f06b"/>
        <stop offset="1" stop-color="#f5c211"/>
    </linearGradient>
    <clipPath id="g">
        <rect height="128" width="128"/>
    </clipPath>
    <clipPath id="h">
        <rect height="128" width="128"/>
    </clipPath>
    <path d="m 16.4375 28.03125 h 95.121094 c 4.660156 0 8.441406 3.96875 8.441406 8.867188 v 70.265624 c 0 4.898438 -3.78125 8.867188 -8.441406 8.867188 h -95.121094 c -4.660156 0 -8.4375 -3.96875 -8.4375 -8.867188 v -70.265624 c 0 -4.898438 3.777344 -8.867188 8.4375 -8.867188 z m 0 0" fill="#deddda"/>
    <path d="m 15.78125 101.90625 h 96.4375 v 14.125 h -96.4375 z m 0 0" fill="#c0bfbc"/>
    <path d="m 15.769531 28.03125 h 96.460938 c 4.289062 0 7.769531 3.65625 7.769531 8.160156 v 64.679688 c 0 4.507812 -3.480469 8.164062 -7.769531 8.164062 h -96.460938 c -4.292969 0 -7.769531 -3.65625 -7.769531 -8.164062 v -64.679688 c 0 -4.503906 3.476562 -8.160156 7.769531 -8.160156 z m 0 0" fill="#f6f5f4"/>
    <path d="m 2.633161 6.657863 c 0.054861 0.071083 0.093999 0.125181 0.202717 -0.036799 c 0.108049 -0.161981 0.286011 -0.54004 0.445241 -0.808959 c 0.157892 -0.267975 0.296716 -0.429012 0.469996 -0.448198 c 0.172945 -0.019815 0.380011 0.100963 0.662008 0.180223 c 0.283001 0.078002 0.642941 0.112915 1.438755 -0.091212 c 0.795146 -0.205071 2.02717 -0.649809 2.777156 -0.891993 c 0.749986 -0.24187 1.015927 -0.280871 1.166125 -0.323961 c 0.149863 -0.04309 0.180973 -0.089954 0.154881 -0.202869 c -0.053857 -0.171731 -0.129458 -0.335598 -0.22513 -0.488143 c -0.115408 -0.211675 -0.267613 -0.401019 -0.449924 -0.558911 c -0.200041 -0.164182 -0.459961 -0.288105 -0.686094 -0.370196 c -0.206062 -0.075171 -0.421156 -0.123608 -0.63993 -0.143738 c -0.259584 -0.028622 -0.521511 -0.024533 -0.780092 0.011952 c -0.304745 0.04309 -0.660001 0.134931 -0.984817 0.207901 c -0.324146 0.07297 -0.616179 0.127068 -0.865059 0.187143 c -0.248881 0.059759 -0.454943 0.128955 -0.670037 0.219853 c -0.213087 0.089954 -0.432864 0.204126 -0.667026 0.324904 c -0.232823 0.121092 -0.479027 0.250048 -0.681075 0.369253 c -0.202717 0.11889 -0.363954 0.229917 -0.499768 0.379002 c -0.142169 0.158521 -0.254567 0.341574 -0.332175 0.54004 c -0.079949 0.199723 -0.125778 0.413915 -0.143842 0.636913 c -0.018064 0.222055 -0.007025 0.452916 0.016057 0.630937 c 0.022747 0.178965 0.058875 0.302888 0.111728 0.410141 c 0.054192 0.106939 0.12511 0.195949 0.180305 0.266717 z m 0 0" fill="none" stroke="#c0bfbc" stroke-linecap="round" stroke-linejoin="round" stroke-width="0.264583" transform="matrix(11.677302 0 0 12.419519 -10.884932 -3.378864)"/>
    <path d="m 19.863281 79.308594 c 0.640625 0.882812 1.097657 1.554687 2.367188 -0.457032 c 1.261719 -2.011718 3.339843 -6.707031 5.199219 -10.046874 c 1.84375 -3.328126 3.464843 -5.328126 5.488281 -5.566407 c 2.019531 -0.246093 4.4375 1.253907 7.730469 2.238281 c 3.304687 0.96875 7.507812 1.402344 16.800781 -1.132812 c 9.285156 -2.546875 23.671875 -8.070312 32.429687 -11.078125 c 8.757813 -3.003906 11.863282 -3.488281 13.617188 -4.023437 c 1.75 -0.535157 2.113281 -1.117188 1.808594 -2.519532 c -0.628907 -2.132812 -1.511719 -4.167968 -2.628907 -6.0625 c -1.347656 -2.628906 -3.125 -4.980468 -5.253906 -6.941406 c -2.335937 -2.039062 -5.371094 -3.578125 -8.011719 -4.597656 c -2.40625 -0.933594 -4.917968 -1.535156 -7.472656 -1.785156 c -3.03125 -0.355469 -6.089844 -0.304688 -9.109375 0.148437 c -3.558594 0.535156 -7.707031 1.675781 -11.5 2.582031 c -3.785156 0.90625 -7.195313 1.578125 -10.101563 2.324219 c -2.90625 0.742187 -5.3125 1.601563 -7.824218 2.730469 c -2.488282 1.117187 -5.054688 2.535156 -7.789063 4.035156 c -2.71875 1.503906 -5.59375 3.105469 -7.953125 4.585938 c -2.367187 1.476562 -4.25 2.855468 -5.835937 4.707031 c -1.660157 1.96875 -2.972657 4.242187 -3.878907 6.707031 c -0.933593 2.480469 -1.46875 5.140625 -1.679687 7.910156 c -0.210937 2.757813 -0.082031 5.625 0.1875 7.835938 c 0.265625 2.222656 0.6875 3.761718 1.304687 5.09375 c 0.632813 1.328125 1.460938 2.433594 2.105469 3.3125 z m 0 0" fill="#c0bfbc"/>
    <path d="m 19.96094307925 74.75390217925 c 0.6601473782 0.85157343143 1.12890471712 1.50000427709 2.43749494562 -0.44531226918 c 1.29297218666 -1.94530454162 3.43359228617 -6.48436847982 5.33984572086 -9.71092867556 c 1.89843841145 -3.21875717714 3.56639966274 -5.15234518622 5.64452358558 -5.37890883244 c 2.07422241354 -0.23828017876 4.55859549398 1.21093244957 7.94532164998 2.16015165529 c 3.39843068389 0.93750267318 7.71874599912 1.35546836333 17.27343423302 -1.08984160554 c 9.54297170136 -2.46094001536 24.33593436324 -7.80468724552 33.33984953042 -10.71093953005 c 8.9999896486 -2.90233877059 12.19531376065 -3.3710961095 13.99609439316 -3.88671957859 c 1.80078063251 -0.51952497839 2.17186818784 -1.0820265823 1.85937529987 -2.43749494562 c -0.644541341 -2.062505881 -1.55078392121 -4.03125549235 -2.69922019411 -5.85937069925 c -1.3867284563 -2.54297975245 -3.2148436632 -4.81640722853 -5.40235390217 -6.71094413068 c -2.40233334335 -1.96874961136 -5.52343274155 -3.45702535126 -8.23436946821 -4.44140615926 c -2.4765580572 -0.9023410709 -5.05858891658 -1.4843742306 -7.68359640149 -1.7304694326 c -3.11718588426 -0.339839467 -6.26171834755 -0.29297333682 -9.36327418532 0.14453591376 c -3.66406944632 0.51562346909 -7.92579009419 1.62109512112 -11.82422620532 2.49999112229 c -3.89062108789 0.87500649652 -7.39452457397 1.52343734218 -10.3867181049 2.24219139239 c -2.98828001699 0.72265555951 -5.46093656489 1.55078392121 -8.04296742427 2.64062552675 c -2.55468428035 1.0820265823 -5.1953098071 2.44922348281 -8.00781782664 3.90234962508 c -2.79686596841 1.45312614227 -5.74999638776 2.99999654953 -8.17187329154 4.42967762207 c -2.43749494562 1.42969307718 -4.37109495935 2.76172837542 -6.00390661301 4.55079247538 c -1.70702436287 1.90624143005 -3.05467770295 4.10155468762 -3.98436535289 6.48046697052 c -0.96094774291 2.40234534799 -1.51563432358 4.97264767019 -1.7304694326 7.64843479921 c -0.21484711367 2.66405859184 -0.0820397371 5.4375034998 0.19140204394 7.57422209 c 0.27734329033 2.14843512275 0.71093902697 3.63671086265 1.34765334008 4.92186802607 c 0.64452933636 1.28515716342 1.50000427709 2.35546721317 2.16016365994 3.20702863996 z m 0 0" fill="none" stroke="#865e3c" stroke-linecap="round" stroke-linejoin="round" stroke-width="3.17622472345"/>
    <path d="m 19.960938 74.753906 c 0.660156 0.851563 1.128906 1.5 2.4375 -0.445312 c 1.292968 -1.945313 3.433593 -6.484375 5.339843 -9.710938 c 1.898438 -3.21875 3.566407 -5.152344 5.644531 -5.378906 c 2.074219 -0.238281 4.558594 1.210938 7.945313 2.160156 c 3.398437 0.9375 7.71875 1.355469 17.273437 -1.089844 c 9.542969 -2.460937 24.335938 -7.804687 33.339844 -10.710937 c 9 -2.902344 12.195313 -3.371094 13.996094 -3.886719 c 1.800781 -0.519531 2.171875 -1.082031 1.859375 -2.4375 c -0.644531 -2.0625 -1.550781 -4.03125 -2.699219 -5.859375 c -1.386718 -2.542969 -3.214844 -4.816406 -5.402344 -6.710937 c -2.402343 -1.96875 -5.523437 -3.457032 -8.234374 -4.441406 c -2.476563 -0.902344 -5.058594 -1.484376 -7.683594 -1.730469 c -3.117188 -0.339844 -6.261719 -0.292969 -9.363282 0.144531 c -3.664062 0.515625 -7.925781 1.621094 -11.824218 2.5 c -3.890625 0.875 -7.394532 1.523438 -10.386719 2.242188 c -2.988281 0.722656 -5.460937 1.550781 -8.042969 2.640624 c -2.554687 1.082032 -5.195312 2.449219 -8.007812 3.902344 c -2.796875 1.453125 -5.75 3 -8.171875 4.429688 c -2.4375 1.429687 -4.371094 2.761718 -6.003907 4.550781 c -1.707031 1.90625 -3.054687 4.101563 -3.984374 6.480469 c -0.960938 2.402344 -1.515626 4.972656 -1.730469 7.648437 c -0.214844 2.664063 -0.082031 5.4375 0.191406 7.574219 c 0.277344 2.148438 0.710937 3.636719 1.347656 4.921875 c 0.644531 1.285156 1.5 2.355469 2.160157 3.207031 z m 0 0" fill="#865e3c"/>
    <path d="m 9.685864 3.764038 c -0.129887 -0.292912 -0.303936 -0.431132 -0.508833 -0.514923 c -0.204898 -0.08415 -0.439994 -0.11208 -0.907912 -0.010027 c -0.468244 0.099906 -1.16996 0.331943 -1.956102 0.618768 c -0.787117 0.286108 -1.65996 0.628078 -2.105148 1.009078 c -0.445838 0.379926 -0.464997 0.799958 -0.309781 0.963244 c 0.153916 0.163644 0.482856 0.071974 0.94493 -0.057294 c 0.575725 -0.158988 1.148852 -0.327288 1.719057 -0.504897 c 0.661776 -0.20912 1.392067 -0.457988 1.973962 -0.517072 c 0.581895 -0.0598 1.016043 0.070185 1.190092 -0.088088 c 0.175023 -0.157915 0.089947 -0.605877 -0.040265 -0.898789 z m 0 0" fill="none" stroke="#63452c" stroke-linecap="round" stroke-linejoin="round" stroke-width="0.264583" transform="matrix(12.029664 0 0 10.908781 -11.818467 -0.857944)"/>
    <path d="m 104.699219 40.203125 c -1.5625 -3.195313 -3.65625 -4.703125 -6.121094 -5.617187 c -2.464844 -0.917969 -5.292969 -1.222657 -10.921875 -0.109376 c -5.632812 1.089844 -14.074219 3.621094 -23.53125 6.75 c -9.46875 3.121094 -19.96875 6.851563 -25.324219 11.007813 c -5.363281 4.144531 -5.59375 8.726563 -3.726562 10.507813 c 1.851562 1.785156 5.808593 0.785156 11.367187 -0.625 c 6.925782 -1.734376 13.820313 -3.570313 20.679688 -5.507813 c 7.960937 -2.28125 16.746094 -4.996094 23.746094 -5.640625 c 7 -0.652344 12.222656 0.765625 14.316406 -0.960938 c 2.105468 -1.722656 1.082031 -6.609374 -0.484375 -9.804687 z m 0 0" fill="#63452c"/>
    <path d="m 2.781969 6.764985 c 0.038126 -0.093092 0.155133 -0.191909 0.276084 -0.438046 c 0.120951 -0.245836 0.245846 -0.636884 0.382902 -0.851087 c 0.137055 -0.213902 0.286929 -0.249753 0.413139 -0.193717 c 0.126867 0.054832 0.23007 0.200947 0.395063 0.294943 c 0.165979 0.0949 0.393748 0.136777 0.695796 0.10906 c 0.303035 -0.029223 0.680021 -0.12804 1.367929 -0.353088 c 0.768761 -0.25397 1.533579 -0.519389 2.294124 -0.79716 c 0.610013 -0.223843 0.835153 -0.323865 1.019866 -0.349774 c 0.150531 -0.030127 0.306321 0.006026 0.428258 0.098817 c 0.095972 0.080137 0.141986 0.194017 0.177811 0.344954 c 0.035168 0.152141 0.060147 0.340133 0.052916 0.533247 c -0.007888 0.207575 -0.054231 0.412137 -0.136727 0.602841 c -0.090056 0.21601 -0.233028 0.450097 -0.468028 0.703163 c -0.283643 0.299161 -0.611328 0.553131 -0.972208 0.752873 c -0.409853 0.229869 -0.900888 0.419066 -1.445824 0.588079 c -0.544937 0.169012 -1.143118 0.317839 -1.582222 0.392855 c -0.439762 0.075016 -0.720776 0.075016 -1.039916 0.023198 c -0.328013 -0.053325 -0.648139 -0.148526 -0.951831 -0.283194 c -0.23237 -0.099419 -0.439762 -0.248848 -0.607055 -0.438046 c -0.130154 -0.155756 -0.189972 -0.316935 -0.242888 -0.439853 c -0.051273 -0.122015 -0.094 -0.208178 -0.057189 -0.300065 z m 0 0" fill="none" stroke="#c0bfbc" stroke-linecap="round" stroke-linejoin="round" stroke-width="0.264583" transform="matrix(11.884985 0 0 12.965957 -11.262881 -8.046535)"/>
    <path d="m 21.800781 79.667969 c 0.453125 -1.207031 1.84375 -2.488281 3.28125 -5.679688 c 1.4375 -3.1875 2.921875 -8.257812 4.550781 -11.035156 c 1.628907 -2.773437 3.410157 -3.238281 4.910157 -2.511719 c 1.507812 0.710938 2.734375 2.605469 4.695312 3.824219 c 1.972657 1.230469 4.679688 1.773437 8.269531 1.414063 c 3.601563 -0.378907 8.082032 -1.660157 16.257813 -4.578126 c 9.136719 -3.292968 18.226563 -6.734374 27.265625 -10.335937 c 7.25 -2.902344 9.925781 -4.199219 12.121094 -4.535156 c 1.789062 -0.390625 3.640625 0.078125 5.089844 1.28125 c 1.140624 1.039062 1.6875 2.515625 2.113281 4.472656 c 0.417969 1.972656 0.714843 4.410156 0.628906 6.914063 c -0.09375 2.691406 -0.644531 5.34375 -1.625 7.816406 c -1.070313 2.800781 -2.769531 5.835937 -5.5625 9.117187 c -3.371094 3.878907 -7.265625 7.171875 -11.554687 9.761719 c -4.871094 2.980469 -10.707032 5.433594 -17.183594 7.625 c -6.476563 2.191406 -13.585938 4.121094 -18.804688 5.09375 c -5.226562 0.972656 -8.566406 0.972656 -12.359375 0.300781 c -3.898437 -0.691406 -7.703125 -1.925781 -11.3125 -3.671875 c -2.761719 -1.289062 -5.226562 -3.226562 -7.214843 -5.679687 c -1.546876 -2.019531 -2.257813 -4.109375 -2.886719 -5.703125 c -0.609375 -1.582032 -1.117188 -2.699219 -0.679688 -3.890625 z m 0 0" fill="#c0bfbc"/>
    <path d="m 21.74999517457 76.03905934267 c 0.45312729242 -1.11718818457 1.85937529987 -2.30858907835 3.31250144214 -5.26171949771 c 1.45312614227 -2.95311841471 2.95313041936 -7.64452128527 4.59765860556 -10.21483561211 c 1.6445281862 -2.56641281754 3.44530881871 -3.00000855418 4.95702962834 -2.32813263878 c 1.52343734218 0.66015938285 2.76171637078 2.41406188054 4.74219451932 3.5429786023 c 1.99218267644 1.14062124966 4.73046598213 1.6445281862 8.35546031224 1.30859022851 c 3.63672286729 -0.35156800418 8.16407027294 -1.53906738866 16.42188481088 -4.23828758278 c 9.23046680875 -3.04687468435 18.41015397338 -6.23827327782 27.5390614939 -9.57030627575 c 7.32421337406 -2.68750366157 10.02343356817 -3.88671957859 12.24609340477 -4.1992244712 c 1.80078063251 -0.35937102278 3.67187246492 0.07422471385 5.13671513974 1.18749938448 c 1.15234978685 0.96094774291 1.70312285357 2.32813263878 2.1367185902 4.14062980384 c 0.42187920409 1.8242136976 0.71875405021 4.08203513647 0.63671431312 6.39843923807 c -0.0976457743 2.49608961299 -0.65233235496 4.9492146051 -1.6445281862 7.23828413231 c -1.0820265823 2.59374739193 -2.79687797305 5.40234189752 -5.61718901119 8.44140155863 c -3.40624570714 3.59374624177 -7.33984342055 6.64062092612 -11.67187526832 9.03906476482 c -4.92186802607 2.76171637078 -10.81640032759 5.03124233755 -17.35546196548 7.05858661627 c -6.54297515183 2.02734427872 -13.72266461677 3.81640837868 -18.99218713308 4.71874944959 c -5.2812510535 0.8984395616 -8.6562486723 0.8984395616 -12.48437358353 0.27344178103 c -3.94141273666 -0.63671431312 -7.78125418043 -1.77734756742 -11.42969358026 -3.39452917459 c -2.78906294981 -1.19141289842 -5.27733753955 -2.98828001699 -7.28515026248 -5.25781798841 c -1.56250045375 -1.87499334172 -2.28125450396 -3.8046798415 -2.91796881708 -5.2812510535 c -0.61328124803 -1.46484267481 -1.12891672176 -2.49999112229 -0.68360445258 -3.60156126502 z m 0 0" fill="none" stroke="#b5835a" stroke-linecap="round" stroke-linejoin="round" stroke-width="3.17622472345"/>
    <path d="m 21.75 76.039062 c 0.453125 -1.117187 1.859375 -2.308593 3.3125 -5.261718 s 2.953125 -7.644532 4.597656 -10.214844 c 1.644532 -2.566406 3.445313 -3 4.957032 -2.328125 c 1.523437 0.660156 2.761718 2.414063 4.742187 3.542969 c 1.992187 1.140625 4.730469 1.644531 8.355469 1.308594 c 3.636718 -0.351563 8.164062 -1.539063 16.421875 -4.238282 c 9.230469 -3.046875 18.410156 -6.238281 27.539062 -9.570312 c 7.324219 -2.6875 10.023438 -3.886719 12.246094 -4.199219 c 1.800781 -0.359375 3.671875 0.074219 5.136719 1.1875 c 1.152344 0.960937 1.703125 2.328125 2.136718 4.140625 c 0.421876 1.824219 0.71875 4.082031 0.636719 6.398438 c -0.097656 2.496093 -0.652343 4.949218 -1.644531 7.238281 c -1.082031 2.59375 -2.796875 5.402343 -5.617188 8.441406 c -3.40625 3.59375 -7.339843 6.640625 -11.671874 9.039063 c -4.921876 2.761718 -10.816407 5.03125 -17.355469 7.058593 c -6.542969 2.027344 -13.722657 3.816407 -18.992188 4.71875 c -5.28125 0.898438 -8.65625 0.898438 -12.484375 0.273438 c -3.941406 -0.636719 -7.78125 -1.777344 -11.429687 -3.394531 c -2.789063 -1.191407 -5.277344 -2.988282 -7.285157 -5.257813 c -1.5625 -1.875 -2.28125 -3.804687 -2.917968 -5.28125 c -0.613282 -1.464844 -1.128906 -2.5 -0.683594 -3.601563 z m 0 0" fill="#b5835a"/>
    <g mask="url(#d)">
        <g clip-path="url(#h)">
            <g mask="url(#e)">
                <g clip-path="url(#g)">
                    <path d="m 128 80.640625 v 47.359375 h -128 v -47.359375 z m 0 0" fill="url(#f)"/>
                    <path d="m 13.308594 80.640625 l 47.355468 47.359375 h 21.214844 l -47.359375 -47.359375 z m 42.421875 0 l 47.363281 47.359375 h 21.214844 l -47.363282 -47.359375 z m 42.429687 0 l 29.839844 29.839844 v -21.210938 l -8.628906 -8.628906 z m -98.160156 7.90625 v 21.214844 l 18.238281 18.238281 h 21.214844 z m 0 0"/>
                </g>
            </g>
        </g>
    </g>
</svg>
