<svg width="128" height="128" viewBox="0 0 33.867 33.867" xml:space="preserve" xmlns="http://www.w3.org/2000/svg"><g style="display:inline"><path style="display:inline;fill:none;stroke:#000;stroke-width:.44;stroke-linecap:round;stroke-linejoin:round;stroke-dasharray:none;paint-order:stroke fill markers" d="M21.321 7.038c-.44.002-.913.033-1.432.106-1.037.145-2.251.46-3.355.71-1.104.248-2.099.43-2.948.636-.85.206-1.553.438-2.28.747-.729.31-1.481.697-2.276 1.11-.794.412-1.632.848-2.323 1.255-.692.406-1.238.783-1.705 1.292a6.07 6.07 0 0 0-1.128 1.839 7.447 7.447 0 0 0-.49 2.171c-.062.759-.025 1.546.054 2.153.08.606.2 1.032.382 1.396.182.364.424.667.612.91.188.242.322.424.534.268.015-.01.032-.027.047-.041a1 1 0 0 0-.071.136c-.128.316.018.607.194 1.025.176.419.383.965.825 1.498.443.534 1.123 1.056 2.069 1.493.946.437 2.16.788 3.245.964 1.086.176 2.045.177 3.543-.078 1.498-.255 3.536-.765 5.392-1.341 1.857-.576 3.53-1.22 4.925-2.002 1.396-.783 2.512-1.705 3.313-2.566.8-.862 1.285-1.661 1.595-2.395a5.73 5.73 0 0 0 .467-2.058 6.985 6.985 0 0 0-.182-1.813c-.121-.516-.279-.904-.606-1.177a1.54 1.54 0 0 0-.56-.29c.225-.122.268-.281.201-.564-.09-.389-.381-1.009-.763-1.664s-.856-1.346-1.535-1.904c-.68-.558-1.566-.982-2.336-1.261a8.698 8.698 0 0 0-2.183-.492 10.88 10.88 0 0 0-1.225-.063Z"/><path style="display:inline;fill:none;fill-opacity:1;stroke:#000;stroke-width:.182883;stroke-linecap:round;stroke-linejoin:round;stroke-dasharray:none;stroke-opacity:1;paint-order:stroke fill markers" transform="matrix(3.41458 0 0 3.09642 -4.587 -.1)" d="M9.818 3.806c-.061-.27-.177-.486-.405-.594-.228-.108-.57-.106-1.09.011-.522.117-1.224.348-2.01.635-.787.286-1.66.628-2.105 1.009-.446.38-.465.8-.31.963.154.164.483.072.945-.057a55.67 55.67 0 0 0 1.719-.505c.662-.209 1.392-.458 1.958-.556.567-.099.97-.047 1.167-.181.198-.135.192-.456.13-.725Z"/><path style="fill:none;fill-opacity:.994211;stroke:#000;stroke-width:.171;stroke-linecap:round;stroke-linejoin:round;stroke-dasharray:none;stroke-opacity:1;paint-order:stroke fill markers" d="M1.903 8.504c.066-.664.131-1.329.267-1.676.136-.348.343-.378.536-.345.194.033.376.128.557.224" transform="scale(2.66667)"/></g></svg>