<svg width="128" height="128" viewBox="0 0 33.867 33.867" xml:space="preserve" xmlns="http://www.w3.org/2000/svg"><g style="display:inline"><path style="display:inline;opacity:1;fill:#5e5c64;fill-opacity:1;stroke:#5e5c64;stroke-width:.624085;stroke-linecap:round;stroke-linejoin:round;stroke-dasharray:none;stroke-opacity:1;paint-order:stroke fill markers" d="M3.617 8.611H30.25v19.835H3.617z" transform="matrix(.95247 0 0 1.00065 .805 -.012)"/><path style="display:inline;opacity:1;fill:#77767b;fill-opacity:1;stroke:#77767b;stroke-width:.580928;stroke-linecap:round;stroke-linejoin:round;stroke-dasharray:none;stroke-opacity:1;paint-order:stroke fill markers" d="M3.597 10.545H30.27v17.16H3.597z" transform="matrix(.95247 0 0 1.00065 .805 -.012)"/><path style="display:inline;opacity:1;fill:#9a9996;fill-opacity:1;stroke:#9a9996;stroke-width:.604819;stroke-linecap:round;stroke-linejoin:round;stroke-dasharray:none;stroke-opacity:1;paint-order:stroke fill markers" d="M3.606 8.319H30.26v18.614H3.606z" transform="matrix(.95247 0 0 1.00065 .805 -.012)"/><path style="display:inline;opacity:1;fill:#c0bfbc;fill-opacity:1;stroke:#c0bfbc;stroke-width:.574432;stroke-linecap:round;stroke-linejoin:round;stroke-dasharray:none;stroke-opacity:1;paint-order:stroke fill markers" d="M3.592 9.281h26.683v16.772H3.592z" transform="matrix(.95247 0 0 1.00065 .805 -.012)"/><path style="display:inline;opacity:1;fill:#deddda;fill-opacity:1;stroke:#deddda;stroke-width:.553285;stroke-linecap:round;stroke-linejoin:round;stroke-dasharray:none;stroke-opacity:1;paint-order:stroke fill markers" d="M3.581 9.623h26.704v15.548H3.581z" transform="matrix(.95247 0 0 1.00065 .805 -.012)"/><path style="display:inline;opacity:1;fill:#f6f5f4;fill-opacity:1;stroke:#f6f5f4;stroke-width:.574739;stroke-linecap:round;stroke-linejoin:round;stroke-dasharray:none;stroke-opacity:1;paint-order:stroke fill markers" d="M3.59 7.474h26.686v16.788H3.59z" transform="matrix(.95247 0 0 1.00065 .805 -.012)"/></g><g style="display:inline"><path style="display:inline;opacity:1;fill:#c0bfbc;fill-opacity:1;stroke:#c0bfbc;stroke-width:.264583;stroke-linecap:round;stroke-linejoin:round;stroke-dasharray:none;stroke-opacity:1;paint-order:stroke fill markers" d="M2.633 6.658c.055.071.094.125.203-.037.108-.162.286-.54.445-.809.158-.268.297-.429.47-.448.173-.02.38.101.662.18.283.078.643.113 1.439-.091.795-.205 2.027-.65 2.777-.892s1.016-.281 1.166-.324c.15-.043.181-.09.155-.203a2.1 2.1 0 0 0-.225-.488 2.016 2.016 0 0 0-.45-.559c-.2-.164-.46-.288-.686-.37a2.554 2.554 0 0 0-.64-.144 3.133 3.133 0 0 0-.78.012c-.305.043-.66.135-.985.208-.324.073-.616.127-.865.187s-.455.129-.67.22c-.213.09-.433.204-.667.325-.233.121-.479.25-.681.369-.203.119-.364.23-.5.379a1.78 1.78 0 0 0-.332.54c-.08.2-.126.414-.144.637-.018.222-.007.453.016.631.023.179.059.303.112.41.054.107.125.196.18.267z" transform="matrix(2.65215 0 0 2.82073 -.075 -1.12)"/><path style="display:inline;opacity:1;fill:#865e3c;fill-opacity:1;stroke:#865e3c;stroke-width:.264583;stroke-linecap:round;stroke-linejoin:round;stroke-dasharray:none;stroke-opacity:1;paint-order:stroke fill markers" d="M2.633 6.658c.055.071.094.125.203-.037.108-.162.286-.54.445-.809.158-.268.297-.429.47-.448.173-.02.38.101.662.18.283.078.643.113 1.439-.091.795-.205 2.027-.65 2.777-.892s1.016-.281 1.166-.324c.15-.043.181-.09.155-.203a2.1 2.1 0 0 0-.225-.488 2.016 2.016 0 0 0-.45-.559c-.2-.164-.46-.288-.686-.37a2.554 2.554 0 0 0-.64-.144 3.133 3.133 0 0 0-.78.012c-.305.043-.66.135-.985.208-.324.073-.616.127-.865.187s-.455.129-.67.22c-.213.09-.433.204-.667.325-.233.121-.479.25-.681.369-.203.119-.364.23-.5.379a1.78 1.78 0 0 0-.332.54c-.08.2-.126.414-.144.637-.018.222-.007.453.016.631.023.179.059.303.112.41.054.107.125.196.18.267z" transform="translate(-.248 -1.528) scale(2.7265)"/><path style="opacity:1;fill:#63452c;fill-opacity:1;stroke:#63452c;stroke-width:.264583;stroke-linecap:round;stroke-linejoin:round;stroke-dasharray:none;stroke-opacity:1;paint-order:stroke fill markers" d="M9.686 3.764c-.13-.293-.304-.431-.509-.515-.205-.084-.44-.112-.908-.01-.468.1-1.17.332-1.956.619-.787.286-1.66.628-2.105 1.009-.446.38-.465.8-.31.963.154.164.483.072.945-.057a55.67 55.67 0 0 0 1.719-.505c.662-.209 1.392-.458 1.974-.517.582-.06 1.016.07 1.19-.088.175-.158.09-.606-.04-.899Z" transform="matrix(2.73219 0 0 2.47761 -.286 -.549)"/><path style="display:inline;opacity:1;fill:#c0bfbc;fill-opacity:1;stroke:#c0bfbc;stroke-width:.264583;stroke-linecap:round;stroke-linejoin:round;stroke-dasharray:none;stroke-opacity:1;paint-order:stroke fill markers" d="M2.782 6.765c.038-.093.155-.192.276-.438.121-.246.246-.637.383-.851.137-.214.287-.25.413-.194.127.055.23.201.395.295.166.095.394.137.696.109.303-.029.68-.128 1.368-.353a78.245 78.245 0 0 0 2.294-.797c.61-.224.835-.324 1.02-.35a.534.534 0 0 1 .428.099c.096.08.142.194.178.345.035.152.06.34.053.533a1.68 1.68 0 0 1-.137.603c-.09.216-.233.45-.468.703a4.028 4.028 0 0 1-.972.753c-.41.23-.901.419-1.446.588-.545.169-1.143.318-1.582.393-.44.075-.721.075-1.04.023a3.885 3.885 0 0 1-.952-.283 1.708 1.708 0 0 1-.607-.438c-.13-.156-.19-.317-.243-.44-.051-.122-.094-.208-.057-.3Z" transform="matrix(2.69933 0 0 2.94484 -.16 -2.18)"/><path style="display:inline;opacity:1;fill:#b5835a;fill-opacity:1;stroke:#b5835a;stroke-width:.264583;stroke-linecap:round;stroke-linejoin:round;stroke-dasharray:none;stroke-opacity:1;paint-order:stroke fill markers" d="M2.782 6.765c.038-.093.155-.192.276-.438.121-.246.246-.637.383-.851.137-.214.287-.25.413-.194.127.055.23.201.395.295.166.095.394.137.696.109.303-.029.68-.128 1.368-.353a78.245 78.245 0 0 0 2.294-.797c.61-.224.835-.324 1.02-.35a.534.534 0 0 1 .428.099c.096.08.142.194.178.345.035.152.06.34.053.533a1.68 1.68 0 0 1-.137.603c-.09.216-.233.45-.468.703a4.028 4.028 0 0 1-.972.753c-.41.23-.901.419-1.446.588-.545.169-1.143.318-1.582.393-.44.075-.721.075-1.04.023a3.885 3.885 0 0 1-.952-.283 1.708 1.708 0 0 1-.607-.438c-.13-.156-.19-.317-.243-.44-.051-.122-.094-.208-.057-.3Z" transform="translate(-.248 -1.528) scale(2.7265)"/></g></svg>